<?xml version="1.0" encoding="UTF-8"?>
<svg version="1.1" xmlns="http://www.w3.org/2000/svg" width="320" height="320">
<path d="M0 0 C3.3 0 6.6 0 10 0 C10 3.3 10 6.6 10 10 C13.3 10 16.6 10 20 10 C20 13.3 20 16.6 20 20 C53 20 86 20 120 20 C120 16.7 120 13.4 120 10 C126.6 10 133.2 10 140 10 C140 13.3 140 16.6 140 20 C143.3 20 146.6 20 150 20 C150 26.6 150 33.2 150 40 C153.3 40 156.6 40 160 40 C160 46.6 160 53.2 160 60 C163.3 60 166.6 60 170 60 C170 63.3 170 66.6 170 70 C173.3 70 176.6 70 180 70 C180 83.2 180 96.4 180 110 C176.7 110 173.4 110 170 110 C170 113.3 170 116.6 170 120 C166.7 120 163.4 120 160 120 C160 126.6 160 133.2 160 140 C163.3 140 166.6 140 170 140 C170 149.9 170 159.8 170 170 C179.9 170 189.8 170 200 170 C200 173.3 200 176.6 200 180 C203.3 180 206.6 180 210 180 C210 183.3 210 186.6 210 190 C213.3 190 216.6 190 220 190 C220 206.5 220 223 220 240 C216.7 240 213.4 240 210 240 C210 253.2 210 266.4 210 280 C206.7 280 203.4 280 200 280 C200 286.6 200 293.2 200 300 C203.3 300 206.6 300 210 300 C210 306.6 210 313.2 210 320 C120.9 320 31.8 320 -60 320 C-60 306.8 -60 293.6 -60 280 C-63.3 280 -66.6 280 -70 280 C-70 266.8 -70 253.6 -70 240 C-66.7 240 -63.4 240 -60 240 C-60 203.7 -60 167.4 -60 130 C-56.7 130 -53.4 130 -50 130 C-50 106.9 -50 83.8 -50 60 C-46.7 60 -43.4 60 -40 60 C-40 56.7 -40 53.4 -40 50 C-36.7 50 -33.4 50 -30 50 C-30 46.7 -30 43.4 -30 40 C-23.4 40 -16.8 40 -10 40 C-10 30.1 -10 20.2 -10 10 C-6.7 10 -3.4 10 0 10 C0 6.7 0 3.4 0 0 Z M40 40 C40 43.3 40 46.6 40 50 C56.5 50 73 50 90 50 C90 46.7 90 43.4 90 40 C73.5 40 57 40 40 40 Z " fill="#FFCA85" transform="translate(90,0)"/>
<path d="M0 0 C3.3 0 6.6 0 10 0 C10 3.3 10 6.6 10 10 C13.3 10 16.6 10 20 10 C20 13.3 20 16.6 20 20 C53 20 86 20 120 20 C120 16.7 120 13.4 120 10 C126.6 10 133.2 10 140 10 C140 13.3 140 16.6 140 20 C143.3 20 146.6 20 150 20 C150 26.6 150 33.2 150 40 C146.7 40 143.4 40 140 40 C140 36.7 140 33.4 140 30 C133.4 30 126.8 30 120 30 C120 36.6 120 43.2 120 50 C116.7 50 113.4 50 110 50 C110 53.3 110 56.6 110 60 C106.7 60 103.4 60 100 60 C100 63.3 100 66.6 100 70 C96.7 70 93.4 70 90 70 C90 79.9 90 89.8 90 100 C93.3 100 96.6 100 100 100 C100 106.6 100 113.2 100 120 C103.3 120 106.6 120 110 120 C110 123.3 110 126.6 110 130 C106.7 130 103.4 130 100 130 C100 133.3 100 136.6 100 140 C96.7 140 93.4 140 90 140 C90 143.3 90 146.6 90 150 C73.5 150 57 150 40 150 C40 143.4 40 136.8 40 130 C36.7 130 33.4 130 30 130 C30 146.5 30 163 30 180 C26.7 180 23.4 180 20 180 C20 183.3 20 186.6 20 190 C33.2 190 46.4 190 60 190 C60 193.3 60 196.6 60 200 C53.4 200 46.8 200 40 200 C40 203.3 40 206.6 40 210 C26.8 210 13.6 210 0 210 C0 206.7 0 203.4 0 200 C-3.3 200 -6.6 200 -10 200 C-10 196.7 -10 193.4 -10 190 C-13.3 190 -16.6 190 -20 190 C-20 176.8 -20 163.6 -20 150 C-16.7 150 -13.4 150 -10 150 C-10 146.7 -10 143.4 -10 140 C-0.1 140 9.8 140 20 140 C20 136.7 20 133.4 20 130 C6.8 130 -6.4 130 -20 130 C-20 126.7 -20 123.4 -20 120 C-16.7 120 -13.4 120 -10 120 C-10 116.7 -10 113.4 -10 110 C-13.3 110 -16.6 110 -20 110 C-20 106.7 -20 103.4 -20 100 C-23.3 100 -26.6 100 -30 100 C-30 96.7 -30 93.4 -30 90 C-26.7 90 -23.4 90 -20 90 C-20 86.7 -20 83.4 -20 80 C-16.7 80 -13.4 80 -10 80 C-10 70.1 -10 60.2 -10 50 C-6.7 50 -3.4 50 0 50 C0 43.4 0 36.8 0 30 C-3.3 30 -6.6 30 -10 30 C-10 23.4 -10 16.8 -10 10 C-6.7 10 -3.4 10 0 10 C0 6.7 0 3.4 0 0 Z M40 40 C40 43.3 40 46.6 40 50 C56.5 50 73 50 90 50 C90 46.7 90 43.4 90 40 C73.5 40 57 40 40 40 Z " fill="#E5AC5C" transform="translate(90,0)"/>
<path d="M0 0 C9.9 0 19.8 0 30 0 C30 3.3 30 6.6 30 10 C33.3 10 36.6 10 40 10 C40 13.3 40 16.6 40 20 C43.3 20 46.6 20 50 20 C50 36.5 50 53 50 70 C46.7 70 43.4 70 40 70 C40 83.2 40 96.4 40 110 C36.7 110 33.4 110 30 110 C30 116.6 30 123.2 30 130 C33.3 130 36.6 130 40 130 C40 136.6 40 143.2 40 150 C-16.1 150 -72.2 150 -130 150 C-130 140.1 -130 130.2 -130 120 C-126.7 120 -123.4 120 -120 120 C-120 113.4 -120 106.8 -120 100 C-116.7 100 -113.4 100 -110 100 C-110 96.7 -110 93.4 -110 90 C-106.7 90 -103.4 90 -100 90 C-100 86.7 -100 83.4 -100 80 C-96.7 80 -93.4 80 -90 80 C-90 76.7 -90 73.4 -90 70 C-86.7 70 -83.4 70 -80 70 C-80 66.7 -80 63.4 -80 60 C-73.4 60 -66.8 60 -60 60 C-60 63.3 -60 66.6 -60 70 C-56.7 70 -53.4 70 -50 70 C-50 63.4 -50 56.8 -50 50 C-46.7 50 -43.4 50 -40 50 C-40 46.7 -40 43.4 -40 40 C-33.4 40 -26.8 40 -20 40 C-20 36.7 -20 33.4 -20 30 C-13.4 30 -6.8 30 0 30 C0 20.1 0 10.2 0 0 Z " fill="#4C4874" transform="translate(260,170)"/>
<path d="M0 0 C3.3 0 6.6 0 10 0 C10 6.6 10 13.2 10 20 C6.7 20 3.4 20 0 20 C0 29.9 0 39.8 0 50 C-3.3 50 -6.6 50 -10 50 C-10 53.3 -10 56.6 -10 60 C-13.3 60 -16.6 60 -20 60 C-20 63.3 -20 66.6 -20 70 C-16.7 70 -13.4 70 -10 70 C-10 73.3 -10 76.6 -10 80 C-6.7 80 -3.4 80 0 80 C0 83.3 0 86.6 0 90 C-3.3 90 -6.6 90 -10 90 C-10 93.3 -10 96.6 -10 100 C3.2 100 16.4 100 30 100 C30 103.3 30 106.6 30 110 C20.1 110 10.2 110 0 110 C0 113.3 0 116.6 0 120 C-3.3 120 -6.6 120 -10 120 C-10 133.2 -10 146.4 -10 160 C-6.7 160 -3.4 160 0 160 C0 163.3 0 166.6 0 170 C3.3 170 6.6 170 10 170 C10 173.3 10 176.6 10 180 C13.3 180 16.6 180 20 180 C20 189.9 20 199.8 20 210 C16.7 210 13.4 210 10 210 C10 213.3 10 216.6 10 220 C6.7 220 3.4 220 0 220 C0 216.7 0 213.4 0 210 C-6.6 210 -13.2 210 -20 210 C-20 206.7 -20 203.4 -20 200 C-23.3 200 -26.6 200 -30 200 C-30 193.4 -30 186.8 -30 180 C-33.3 180 -36.6 180 -40 180 C-40 130.5 -40 81 -40 30 C-36.7 30 -33.4 30 -30 30 C-30 26.7 -30 23.4 -30 20 C-26.7 20 -23.4 20 -20 20 C-20 16.7 -20 13.4 -20 10 C-13.4 10 -6.8 10 0 10 C0 6.7 0 3.4 0 0 Z " fill="#FFCA85" transform="translate(80,30)"/>
<path d="M0 0 C6.6 0 13.2 0 20 0 C20 3.3 20 6.6 20 10 C26.6 10 33.2 10 40 10 C40 16.6 40 23.2 40 30 C43.3 30 46.6 30 50 30 C50 33.3 50 36.6 50 40 C53.3 40 56.6 40 60 40 C60 53.2 60 66.4 60 80 C56.7 80 53.4 80 50 80 C50 83.3 50 86.6 50 90 C46.7 90 43.4 90 40 90 C40 93.3 40 96.6 40 100 C36.7 100 33.4 100 30 100 C30 113.2 30 126.4 30 140 C26.7 140 23.4 140 20 140 C20 126.8 20 113.6 20 100 C13.4 100 6.8 100 0 100 C0 96.7 0 93.4 0 90 C-6.6 90 -13.2 90 -20 90 C-20 83.4 -20 76.8 -20 70 C-23.3 70 -26.6 70 -30 70 C-30 60.1 -30 50.2 -30 40 C-26.7 40 -23.4 40 -20 40 C-20 36.7 -20 33.4 -20 30 C-16.7 30 -13.4 30 -10 30 C-10 26.7 -10 23.4 -10 20 C-6.7 20 -3.4 20 0 20 C0 13.4 0 6.8 0 0 Z " fill="#FFFFFF" transform="translate(210,30)"/>
<path d="M0 0 C36.3 0 72.6 0 110 0 C110 3.3 110 6.6 110 10 C113.3 10 116.6 10 120 10 C120 13.3 120 16.6 120 20 C123.3 20 126.6 20 130 20 C130 26.6 130 33.2 130 40 C73.9 40 17.8 40 -40 40 C-40 30.1 -40 20.2 -40 10 C-30.1 10 -20.2 10 -10 10 C-10 13.3 -10 16.6 -10 20 C-6.7 20 -3.4 20 0 20 C0 13.4 0 6.8 0 0 Z " fill="#222034" transform="translate(170,280)"/>
<path d="M0 0 C3.3 0 6.6 0 10 0 C10 26.4 10 52.8 10 80 C13.3 80 16.6 80 20 80 C20 86.6 20 93.2 20 100 C23.3 100 26.6 100 30 100 C30 103.3 30 106.6 30 110 C33.3 110 36.6 110 40 110 C40 116.6 40 123.2 40 130 C43.3 130 46.6 130 50 130 C50 139.9 50 149.8 50 160 C53.3 160 56.6 160 60 160 C60 169.9 60 179.8 60 190 C40.2 190 20.4 190 0 190 C0 176.8 0 163.6 0 150 C-3.3 150 -6.6 150 -10 150 C-10 136.8 -10 123.6 -10 110 C-6.7 110 -3.4 110 0 110 C0 73.7 0 37.4 0 0 Z " fill="#4C4874" transform="translate(30,130)"/>
<path d="M0 0 C3.3 0 6.6 0 10 0 C10 3.3 10 6.6 10 10 C13.3 10 16.6 10 20 10 C20 13.3 20 16.6 20 20 C53 20 86 20 120 20 C120 16.7 120 13.4 120 10 C126.6 10 133.2 10 140 10 C140 13.3 140 16.6 140 20 C143.3 20 146.6 20 150 20 C150 26.6 150 33.2 150 40 C146.7 40 143.4 40 140 40 C140 36.7 140 33.4 140 30 C133.4 30 126.8 30 120 30 C120 33.3 120 36.6 120 40 C113.4 40 106.8 40 100 40 C100 43.3 100 46.6 100 50 C96.7 50 93.4 50 90 50 C90 46.7 90 43.4 90 40 C73.5 40 57 40 40 40 C40 43.3 40 46.6 40 50 C36.7 50 33.4 50 30 50 C30 46.7 30 43.4 30 40 C20.1 40 10.2 40 0 40 C0 36.7 0 33.4 0 30 C-3.3 30 -6.6 30 -10 30 C-10 23.4 -10 16.8 -10 10 C-6.7 10 -3.4 10 0 10 C0 6.7 0 3.4 0 0 Z " fill="#FFFFFF" transform="translate(90,0)"/>
<path d="M0 0 C6.6 0 13.2 0 20 0 C20 6.6 20 13.2 20 20 C23.3 20 26.6 20 30 20 C30 26.6 30 33.2 30 40 C26.7 40 23.4 40 20 40 C20 46.6 20 53.2 20 60 C16.7 60 13.4 60 10 60 C10 56.7 10 53.4 10 50 C3.4 50 -3.2 50 -10 50 C-10 53.3 -10 56.6 -10 60 C-13.3 60 -16.6 60 -20 60 C-20 63.3 -20 66.6 -20 70 C-29.9 70 -39.8 70 -50 70 C-50 56.8 -50 43.6 -50 30 C-43.4 30 -36.8 30 -30 30 C-30 26.7 -30 23.4 -30 20 C-23.4 20 -16.8 20 -10 20 C-10 16.7 -10 13.4 -10 10 C-6.7 10 -3.4 10 0 10 C0 6.7 0 3.4 0 0 Z " fill="#FFDDB0" transform="translate(190,180)"/>
<path d="M0 0 C3.3 0 6.6 0 10 0 C10 9.9 10 19.8 10 30 C13.3 30 16.6 30 20 30 C20 36.6 20 43.2 20 50 C23.3 50 26.6 50 30 50 C30 53.3 30 56.6 30 60 C33.3 60 36.6 60 40 60 C40 63.3 40 66.6 40 70 C43.3 70 46.6 70 50 70 C50 73.3 50 76.6 50 80 C53.3 80 56.6 80 60 80 C60 89.9 60 99.8 60 110 C56.7 110 53.4 110 50 110 C50 113.3 50 116.6 50 120 C46.7 120 43.4 120 40 120 C40 116.7 40 113.4 40 110 C33.4 110 26.8 110 20 110 C20 106.7 20 103.4 20 100 C16.7 100 13.4 100 10 100 C10 93.4 10 86.8 10 80 C6.7 80 3.4 80 0 80 C0 53.6 0 27.2 0 0 Z " fill="#FFDDB0" transform="translate(40,130)"/>
<path d="M0 0 C23.1 0 46.2 0 70 0 C70 3.3 70 6.6 70 10 C66.7 10 63.4 10 60 10 C60 16.6 60 23.2 60 30 C56.7 30 53.4 30 50 30 C50 39.9 50 49.8 50 60 C36.8 60 23.6 60 10 60 C10 50.1 10 40.2 10 30 C6.7 30 3.4 30 0 30 C0 20.1 0 10.2 0 0 Z " fill="#FFDDB0" transform="translate(80,260)"/>
<path d="M0 0 C3.3 0 6.6 0 10 0 C10 36.3 10 72.6 10 110 C13.3 110 16.6 110 20 110 C20 119.9 20 129.8 20 140 C23.3 140 26.6 140 30 140 C30 146.6 30 153.2 30 160 C20.1 160 10.2 160 0 160 C0 156.7 0 153.4 0 150 C-3.3 150 -6.6 150 -10 150 C-10 136.8 -10 123.6 -10 110 C-6.7 110 -3.4 110 0 110 C0 73.7 0 37.4 0 0 Z " fill="#4C4874" transform="translate(30,130)"/>
<path d="M0 0 C13.2 0 26.4 0 40 0 C40 13.2 40 26.4 40 40 C46.6 40 53.2 40 60 40 C60 43.3 60 46.6 60 50 C30.3 50 0.6 50 -30 50 C-30 43.4 -30 36.8 -30 30 C-26.7 30 -23.4 30 -20 30 C-20 33.3 -20 36.6 -20 40 C-16.7 40 -13.4 40 -10 40 C-10 36.7 -10 33.4 -10 30 C-6.7 30 -3.4 30 0 30 C0 20.1 0 10.2 0 0 Z " fill="#FFCA85" transform="translate(100,210)"/>
<path d="M0 0 C9.9 0 19.8 0 30 0 C30 9.9 30 19.8 30 30 C26.7 30 23.4 30 20 30 C20 33.3 20 36.6 20 40 C16.7 40 13.4 40 10 40 C10 43.3 10 46.6 10 50 C29.8 50 49.6 50 70 50 C70 53.3 70 56.6 70 60 C63.4 60 56.8 60 50 60 C50 63.3 50 66.6 50 70 C36.8 70 23.6 70 10 70 C10 66.7 10 63.4 10 60 C6.7 60 3.4 60 0 60 C0 56.7 0 53.4 0 50 C-3.3 50 -6.6 50 -10 50 C-10 36.8 -10 23.6 -10 10 C-6.7 10 -3.4 10 0 10 C0 6.7 0 3.4 0 0 Z " fill="#D9A866" transform="translate(80,140)"/>
<path d="M0 0 C3.3 0 6.6 0 10 0 C10 6.6 10 13.2 10 20 C26.5 20 43 20 60 20 C60 29.9 60 39.8 60 50 C50.1 50 40.2 50 30 50 C30 53.3 30 56.6 30 60 C16.8 60 3.6 60 -10 60 C-10 56.7 -10 53.4 -10 50 C-6.7 50 -3.4 50 0 50 C0 33.5 0 17 0 0 Z " fill="#FFDDB0" transform="translate(120,130)"/>
<path d="M0 0 C3.3 0 6.6 0 10 0 C10 3.3 10 6.6 10 10 C13.3 10 16.6 10 20 10 C20 29.8 20 49.6 20 70 C13.4 70 6.8 70 0 70 C0 73.3 0 76.6 0 80 C-6.6 80 -13.2 80 -20 80 C-20 76.7 -20 73.4 -20 70 C-16.7 70 -13.4 70 -10 70 C-10 60.1 -10 50.2 -10 40 C-6.7 40 -3.4 40 0 40 C0 26.8 0 13.6 0 0 Z " fill="#E5AC5C" transform="translate(240,130)"/>
<path d="M0 0 C6.6 0 13.2 0 20 0 C20 3.3 20 6.6 20 10 C16.7 10 13.4 10 10 10 C10 16.6 10 23.2 10 30 C6.7 30 3.4 30 0 30 C0 33.3 0 36.6 0 40 C-3.3 40 -6.6 40 -10 40 C-10 49.9 -10 59.8 -10 70 C-13.3 70 -16.6 70 -20 70 C-20 66.7 -20 63.4 -20 60 C-26.6 60 -33.2 60 -40 60 C-40 53.4 -40 46.8 -40 40 C-36.7 40 -33.4 40 -30 40 C-30 36.7 -30 33.4 -30 30 C-26.7 30 -23.4 30 -20 30 C-20 26.7 -20 23.4 -20 20 C-16.7 20 -13.4 20 -10 20 C-10 16.7 -10 13.4 -10 10 C-6.7 10 -3.4 10 0 10 C0 6.7 0 3.4 0 0 Z " fill="#4C4874" transform="translate(180,230)"/>
<path d="M0 0 C9.9 0 19.8 0 30 0 C30 6.6 30 13.2 30 20 C33.3 20 36.6 20 40 20 C40 16.7 40 13.4 40 10 C46.6 10 53.2 10 60 10 C60 16.6 60 23.2 60 30 C40.2 30 20.4 30 0 30 C0 20.1 0 10.2 0 0 Z " fill="#222034" transform="translate(30,290)"/>
<path d="M0 0 C6.6 0 13.2 0 20 0 C20 3.3 20 6.6 20 10 C16.7 10 13.4 10 10 10 C10 19.9 10 29.8 10 40 C-3.2 40 -16.4 40 -30 40 C-30 30.1 -30 20.2 -30 10 C-20.1 10 -10.2 10 0 10 C0 6.7 0 3.4 0 0 Z " fill="#FFFFFF" transform="translate(120,280)"/>
<path d="M0 0 C39.6 0 79.2 0 120 0 C120 3.3 120 6.6 120 10 C113.4 10 106.8 10 100 10 C100 13.3 100 16.6 100 20 C96.7 20 93.4 20 90 20 C90 16.7 90 13.4 90 10 C73.5 10 57 10 40 10 C40 13.3 40 16.6 40 20 C36.7 20 33.4 20 30 20 C30 16.7 30 13.4 30 10 C20.1 10 10.2 10 0 10 C0 6.7 0 3.4 0 0 Z " fill="#677DFF" transform="translate(90,30)"/>
<path d="M0 0 C9.9 0 19.8 0 30 0 C30 3.3 30 6.6 30 10 C33.3 10 36.6 10 40 10 C40 13.3 40 16.6 40 20 C43.3 20 46.6 20 50 20 C50 23.3 50 26.6 50 30 C43.4 30 36.8 30 30 30 C30 33.3 30 36.6 30 40 C26.7 40 23.4 40 20 40 C20 36.7 20 33.4 20 30 C13.4 30 6.8 30 0 30 C0 20.1 0 10.2 0 0 Z " fill="#FFDDB0" transform="translate(130,80)"/>
<path d="M0 0 C3.3 0 6.6 0 10 0 C10 6.6 10 13.2 10 20 C3.4 20 -3.2 20 -10 20 C-10 23.3 -10 26.6 -10 30 C-13.3 30 -16.6 30 -20 30 C-20 33.3 -20 36.6 -20 40 C-23.3 40 -26.6 40 -30 40 C-30 53.2 -30 66.4 -30 80 C-33.3 80 -36.6 80 -40 80 C-40 63.5 -40 47 -40 30 C-36.7 30 -33.4 30 -30 30 C-30 26.7 -30 23.4 -30 20 C-26.7 20 -23.4 20 -20 20 C-20 16.7 -20 13.4 -20 10 C-13.4 10 -6.8 10 0 10 C0 6.7 0 3.4 0 0 Z " fill="#FFFFFF" transform="translate(80,30)"/>
<path d="M0 0 C3.3 0 6.6 0 10 0 C10 3.3 10 6.6 10 10 C36.4 10 62.8 10 90 10 C90 13.3 90 16.6 90 20 C60.3 20 30.6 20 0 20 C0 13.4 0 6.8 0 0 Z " fill="#D5A055" transform="translate(70,240)"/>
<path d="M0 0 C9.9 0 19.8 0 30 0 C30 3.3 30 6.6 30 10 C33.3 10 36.6 10 40 10 C40 13.3 40 16.6 40 20 C36.7 20 33.4 20 30 20 C30 23.3 30 26.6 30 30 C20.1 30 10.2 30 0 30 C0 20.1 0 10.2 0 0 Z " fill="#222034" transform="translate(260,170)"/>
<path d="M0 0 C9.9 0 19.8 0 30 0 C30 9.9 30 19.8 30 30 C26.7 30 23.4 30 20 30 C20 33.3 20 36.6 20 40 C16.7 40 13.4 40 10 40 C10 36.7 10 33.4 10 30 C6.7 30 3.4 30 0 30 C0 20.1 0 10.2 0 0 Z " fill="#663931" transform="translate(80,140)"/>
<path d="M0 0 C3.3 0 6.6 0 10 0 C10 9.9 10 19.8 10 30 C6.7 30 3.4 30 0 30 C0 33.3 0 36.6 0 40 C-3.3 40 -6.6 40 -10 40 C-10 46.6 -10 53.2 -10 60 C-13.3 60 -16.6 60 -20 60 C-20 46.8 -20 33.6 -20 20 C-16.7 20 -13.4 20 -10 20 C-10 16.7 -10 13.4 -10 10 C-6.7 10 -3.4 10 0 10 C0 6.7 0 3.4 0 0 Z " fill="#CBCBCB" transform="translate(70,50)"/>
<path d="M0 0 C9.9 0 19.8 0 30 0 C30 9.9 30 19.8 30 30 C20.1 30 10.2 30 0 30 C0 20.1 0 10.2 0 0 Z " fill="#FFFFFF" transform="translate(220,80)"/>
<path d="M0 0 C3.3 0 6.6 0 10 0 C10 26.4 10 52.8 10 80 C6.7 80 3.4 80 0 80 C0 53.6 0 27.2 0 0 Z " fill="#663931" transform="translate(30,130)"/>
<path d="M0 0 C3.3 0 6.6 0 10 0 C10 13.2 10 26.4 10 40 C6.7 40 3.4 40 0 40 C0 43.3 0 46.6 0 50 C-6.6 50 -13.2 50 -20 50 C-20 46.7 -20 43.4 -20 40 C-16.7 40 -13.4 40 -10 40 C-10 36.7 -10 33.4 -10 30 C-6.7 30 -3.4 30 0 30 C0 20.1 0 10.2 0 0 Z " fill="#CFAF84" transform="translate(110,140)"/>
<path d="M0 0 C3.3 0 6.6 0 10 0 C10 13.2 10 26.4 10 40 C-3.2 40 -16.4 40 -30 40 C-30 36.7 -30 33.4 -30 30 C-20.1 30 -10.2 30 0 30 C0 20.1 0 10.2 0 0 Z " fill="#677DFF" transform="translate(250,80)"/>
<path d="M0 0 C9.9 0 19.8 0 30 0 C30 3.3 30 6.6 30 10 C26.7 10 23.4 10 20 10 C20 13.3 20 16.6 20 20 C16.7 20 13.4 20 10 20 C10 23.3 10 26.6 10 30 C6.7 30 3.4 30 0 30 C0 20.1 0 10.2 0 0 Z " fill="#222034" transform="translate(130,290)"/>
<path d="M0 0 C6.6 0 13.2 0 20 0 C20 3.3 20 6.6 20 10 C16.7 10 13.4 10 10 10 C10 13.3 10 16.6 10 20 C6.7 20 3.4 20 0 20 C0 23.3 0 26.6 0 30 C-6.6 30 -13.2 30 -20 30 C-20 26.7 -20 23.4 -20 20 C-16.7 20 -13.4 20 -10 20 C-10 16.7 -10 13.4 -10 10 C-6.7 10 -3.4 10 0 10 C0 6.7 0 3.4 0 0 Z " fill="#E5AC5C" transform="translate(190,40)"/>
<path d="M0 0 C6.6 0 13.2 0 20 0 C20 3.3 20 6.6 20 10 C23.3 10 26.6 10 30 10 C30 16.6 30 23.2 30 30 C26.7 30 23.4 30 20 30 C20 26.7 20 23.4 20 20 C13.4 20 6.8 20 0 20 C0 13.4 0 6.8 0 0 Z " fill="#E5AC5C" transform="translate(210,10)"/>
<path d="M0 0 C3.3 0 6.6 0 10 0 C10 3.3 10 6.6 10 10 C13.3 10 16.6 10 20 10 C20 6.7 20 3.4 20 0 C23.3 0 26.6 0 30 0 C30 6.6 30 13.2 30 20 C20.1 20 10.2 20 0 20 C0 13.4 0 6.8 0 0 Z " fill="#663931" transform="translate(140,110)"/>
<path d="M0 0 C16.5 0 33 0 50 0 C50 3.3 50 6.6 50 10 C33.5 10 17 10 0 10 C0 6.7 0 3.4 0 0 Z " fill="#663931" transform="translate(130,50)"/>
<path d="M0 0 C3.3 0 6.6 0 10 0 C10 3.3 10 6.6 10 10 C13.3 10 16.6 10 20 10 C20 13.3 20 16.6 20 20 C13.4 20 6.8 20 0 20 C0 23.3 0 26.6 0 30 C-3.3 30 -6.6 30 -10 30 C-10 23.4 -10 16.8 -10 10 C-6.7 10 -3.4 10 0 10 C0 6.7 0 3.4 0 0 Z " fill="#E5AC5C" transform="translate(90,0)"/>
<path d="M0 0 C3.3 0 6.6 0 10 0 C10 13.2 10 26.4 10 40 C6.7 40 3.4 40 0 40 C0 26.8 0 13.6 0 0 Z " fill="#CBCBCB" transform="translate(230,130)"/>
<path d="M0 0 C6.6 0 13.2 0 20 0 C20 6.6 20 13.2 20 20 C16.7 20 13.4 20 10 20 C10 16.7 10 13.4 10 10 C6.7 10 3.4 10 0 10 C0 6.7 0 3.4 0 0 Z " fill="#222034" transform="translate(70,300)"/>
<path d="M0 0 C3.3 0 6.6 0 10 0 C10 9.9 10 19.8 10 30 C6.7 30 3.4 30 0 30 C0 20.1 0 10.2 0 0 Z " fill="#CBCBCB" transform="translate(40,240)"/>
<path d="M0 0 C3.3 0 6.6 0 10 0 C10 9.9 10 19.8 10 30 C6.7 30 3.4 30 0 30 C0 20.1 0 10.2 0 0 Z " fill="#CBCBCB" transform="translate(30,210)"/>
<path d="M0 0 C3.3 0 6.6 0 10 0 C10 9.9 10 19.8 10 30 C6.7 30 3.4 30 0 30 C0 20.1 0 10.2 0 0 Z " fill="#663931" transform="translate(260,170)"/>
<path d="M0 0 C3.3 0 6.6 0 10 0 C10 9.9 10 19.8 10 30 C6.7 30 3.4 30 0 30 C0 20.1 0 10.2 0 0 Z " fill="#CBCBCB" transform="translate(220,170)"/>
<path d="M0 0 C3.3 0 6.6 0 10 0 C10 9.9 10 19.8 10 30 C6.7 30 3.4 30 0 30 C0 20.1 0 10.2 0 0 Z " fill="#663931" transform="translate(250,140)"/>
<path d="M0 0 C3.3 0 6.6 0 10 0 C10 9.9 10 19.8 10 30 C6.7 30 3.4 30 0 30 C0 20.1 0 10.2 0 0 Z " fill="#D9B17B" transform="translate(110,140)"/>
<path d="M0 0 C6.6 0 13.2 0 20 0 C20 6.6 20 13.2 20 20 C16.7 20 13.4 20 10 20 C10 16.7 10 13.4 10 10 C6.7 10 3.4 10 0 10 C0 6.7 0 3.4 0 0 Z " fill="#E5AC5C" transform="translate(210,130)"/>
<path d="M0 0 C9.9 0 19.8 0 30 0 C30 3.3 30 6.6 30 10 C20.1 10 10.2 10 0 10 C0 6.7 0 3.4 0 0 Z " fill="#677DFF" transform="translate(220,110)"/>
<path d="M0 0 C3.3 0 6.6 0 10 0 C10 6.6 10 13.2 10 20 C3.4 20 -3.2 20 -10 20 C-10 16.7 -10 13.4 -10 10 C-6.7 10 -3.4 10 0 10 C0 6.7 0 3.4 0 0 Z " fill="#663931" transform="translate(90,100)"/>
<path d="M0 0 C3.3 0 6.6 0 10 0 C10 9.9 10 19.8 10 30 C6.7 30 3.4 30 0 30 C0 20.1 0 10.2 0 0 Z " fill="#677DFF" transform="translate(210,80)"/>
<path d="M0 0 C9.9 0 19.8 0 30 0 C30 3.3 30 6.6 30 10 C20.1 10 10.2 10 0 10 C0 6.7 0 3.4 0 0 Z " fill="#677DFF" transform="translate(220,70)"/>
<path d="M0 0 C3.3 0 6.6 0 10 0 C10 9.9 10 19.8 10 30 C6.7 30 3.4 30 0 30 C0 20.1 0 10.2 0 0 Z " fill="#CBCBCB" transform="translate(180,70)"/>
<path d="M0 0 C3.3 0 6.6 0 10 0 C10 9.9 10 19.8 10 30 C6.7 30 3.4 30 0 30 C0 20.1 0 10.2 0 0 Z " fill="#663931" transform="translate(80,50)"/>
<path d="M0 0 C6.6 0 13.2 0 20 0 C20 3.3 20 6.6 20 10 C16.7 10 13.4 10 10 10 C10 13.3 10 16.6 10 20 C6.7 20 3.4 20 0 20 C0 13.4 0 6.8 0 0 Z " fill="#BB8C4B" transform="translate(90,40)"/>
<path d="M0 0 C3.3 0 6.6 0 10 0 C10 6.6 10 13.2 10 20 C6.7 20 3.4 20 0 20 C0 13.4 0 6.8 0 0 Z " fill="#CBCBCB" transform="translate(60,290)"/>
<path d="M0 0 C3.3 0 6.6 0 10 0 C10 6.6 10 13.2 10 20 C6.7 20 3.4 20 0 20 C0 13.4 0 6.8 0 0 Z " fill="#CBCBCB" transform="translate(160,280)"/>
<path d="M0 0 C3.3 0 6.6 0 10 0 C10 6.6 10 13.2 10 20 C6.7 20 3.4 20 0 20 C0 13.4 0 6.8 0 0 Z " fill="#CBCBCB" transform="translate(50,270)"/>
<path d="M0 0 C3.3 0 6.6 0 10 0 C10 6.6 10 13.2 10 20 C6.7 20 3.4 20 0 20 C0 13.4 0 6.8 0 0 Z " fill="#FFCA85" transform="translate(70,240)"/>
<path d="M0 0 C3.3 0 6.6 0 10 0 C10 6.6 10 13.2 10 20 C6.7 20 3.4 20 0 20 C0 13.4 0 6.8 0 0 Z " fill="#CBCBCB" transform="translate(190,240)"/>
<path d="M0 0 C3.3 0 6.6 0 10 0 C10 6.6 10 13.2 10 20 C6.7 20 3.4 20 0 20 C0 13.4 0 6.8 0 0 Z " fill="#CBCBCB" transform="translate(200,220)"/>
<path d="M0 0 C3.3 0 6.6 0 10 0 C10 6.6 10 13.2 10 20 C6.7 20 3.4 20 0 20 C0 13.4 0 6.8 0 0 Z " fill="#663931" transform="translate(40,210)"/>
<path d="M0 0 C3.3 0 6.6 0 10 0 C10 6.6 10 13.2 10 20 C6.7 20 3.4 20 0 20 C0 13.4 0 6.8 0 0 Z " fill="#CBCBCB" transform="translate(210,200)"/>
<path d="M0 0 C6.6 0 13.2 0 20 0 C20 3.3 20 6.6 20 10 C13.4 10 6.8 10 0 10 C0 6.7 0 3.4 0 0 Z " fill="#884C41" transform="translate(110,200)"/>
<path d="M0 0 C6.6 0 13.2 0 20 0 C20 3.3 20 6.6 20 10 C13.4 10 6.8 10 0 10 C0 6.7 0 3.4 0 0 Z " fill="#D9A866" transform="translate(90,200)"/>
<path d="M0 0 C6.6 0 13.2 0 20 0 C20 3.3 20 6.6 20 10 C13.4 10 6.8 10 0 10 C0 6.7 0 3.4 0 0 Z " fill="#A85E51" transform="translate(130,190)"/>
<path d="M0 0 C6.6 0 13.2 0 20 0 C20 3.3 20 6.6 20 10 C13.4 10 6.8 10 0 10 C0 6.7 0 3.4 0 0 Z " fill="#CFAF84" transform="translate(110,190)"/>
<path d="M0 0 C6.6 0 13.2 0 20 0 C20 3.3 20 6.6 20 10 C13.4 10 6.8 10 0 10 C0 6.7 0 3.4 0 0 Z " fill="#663931" transform="translate(90,190)"/>
<path d="M0 0 C3.3 0 6.6 0 10 0 C10 6.6 10 13.2 10 20 C6.7 20 3.4 20 0 20 C0 13.4 0 6.8 0 0 Z " fill="#C79550" transform="translate(140,110)"/>
<path d="M0 0 C3.3 0 6.6 0 10 0 C10 6.6 10 13.2 10 20 C6.7 20 3.4 20 0 20 C0 13.4 0 6.8 0 0 Z " fill="#663931" transform="translate(40,110)"/>
<path d="M0 0 C3.3 0 6.6 0 10 0 C10 6.6 10 13.2 10 20 C6.7 20 3.4 20 0 20 C0 13.4 0 6.8 0 0 Z " fill="#CBCBCB" transform="translate(190,100)"/>
<path d="M0 0 C6.6 0 13.2 0 20 0 C20 3.3 20 6.6 20 10 C13.4 10 6.8 10 0 10 C0 6.7 0 3.4 0 0 Z " fill="#FFDDB0" transform="translate(160,100)"/>
<path d="M0 0 C3.3 0 6.6 0 10 0 C10 6.6 10 13.2 10 20 C6.7 20 3.4 20 0 20 C0 13.4 0 6.8 0 0 Z " fill="#663931" transform="translate(230,20)"/>
<path d="M0 0 C6.6 0 13.2 0 20 0 C20 3.3 20 6.6 20 10 C13.4 10 6.8 10 0 10 C0 6.7 0 3.4 0 0 Z " fill="#663931" transform="translate(210,10)"/>
<path d="M0 0 C3.3 0 6.6 0 10 0 C10 6.6 10 13.2 10 20 C6.7 20 3.4 20 0 20 C0 13.4 0 6.8 0 0 Z " fill="#663931" transform="translate(80,10)"/>
<path d="M0 0 C3.3 0 6.6 0 10 0 C10 3.3 10 6.6 10 10 C6.7 10 3.4 10 0 10 C0 6.7 0 3.4 0 0 Z " fill="#CBCBCB" transform="translate(140,310)"/>
<path d="M0 0 C3.3 0 6.6 0 10 0 C10 3.3 10 6.6 10 10 C6.7 10 3.4 10 0 10 C0 6.7 0 3.4 0 0 Z " fill="#CBCBCB" transform="translate(70,310)"/>
<path d="M0 0 C3.3 0 6.6 0 10 0 C10 3.3 10 6.6 10 10 C6.7 10 3.4 10 0 10 C0 6.7 0 3.4 0 0 Z " fill="#CBCBCB" transform="translate(150,300)"/>
<path d="M0 0 C3.3 0 6.6 0 10 0 C10 3.3 10 6.6 10 10 C6.7 10 3.4 10 0 10 C0 6.7 0 3.4 0 0 Z " fill="#4C4874" transform="translate(50,290)"/>
<path d="M0 0 C3.3 0 6.6 0 10 0 C10 3.3 10 6.6 10 10 C6.7 10 3.4 10 0 10 C0 6.7 0 3.4 0 0 Z " fill="#FFFFFF" transform="translate(80,280)"/>
<path d="M0 0 C3.3 0 6.6 0 10 0 C10 3.3 10 6.6 10 10 C6.7 10 3.4 10 0 10 C0 6.7 0 3.4 0 0 Z " fill="#CBCBCB" transform="translate(170,270)"/>
<path d="M0 0 C3.3 0 6.6 0 10 0 C10 3.3 10 6.6 10 10 C6.7 10 3.4 10 0 10 C0 6.7 0 3.4 0 0 Z " fill="#CBCBCB" transform="translate(180,260)"/>
<path d="M0 0 C3.3 0 6.6 0 10 0 C10 3.3 10 6.6 10 10 C6.7 10 3.4 10 0 10 C0 6.7 0 3.4 0 0 Z " fill="#D5A055" transform="translate(160,240)"/>
<path d="M0 0 C3.3 0 6.6 0 10 0 C10 3.3 10 6.6 10 10 C6.7 10 3.4 10 0 10 C0 6.7 0 3.4 0 0 Z " fill="#D5A055" transform="translate(70,240)"/>
<path d="M0 0 C3.3 0 6.6 0 10 0 C10 3.3 10 6.6 10 10 C6.7 10 3.4 10 0 10 C0 6.7 0 3.4 0 0 Z " fill="#FFCA85" transform="translate(220,200)"/>
<path d="M0 0 C3.3 0 6.6 0 10 0 C10 3.3 10 6.6 10 10 C6.7 10 3.4 10 0 10 C0 6.7 0 3.4 0 0 Z " fill="#D9A866" transform="translate(130,200)"/>
<path d="M0 0 C3.3 0 6.6 0 10 0 C10 3.3 10 6.6 10 10 C6.7 10 3.4 10 0 10 C0 6.7 0 3.4 0 0 Z " fill="#663931" transform="translate(110,200)"/>
<path d="M0 0 C3.3 0 6.6 0 10 0 C10 3.3 10 6.6 10 10 C6.7 10 3.4 10 0 10 C0 6.7 0 3.4 0 0 Z " fill="#FFCA85" transform="translate(80,200)"/>
<path d="M0 0 C3.3 0 6.6 0 10 0 C10 3.3 10 6.6 10 10 C6.7 10 3.4 10 0 10 C0 6.7 0 3.4 0 0 Z " fill="#884C41" transform="translate(130,190)"/>
<path d="M0 0 C3.3 0 6.6 0 10 0 C10 3.3 10 6.6 10 10 C6.7 10 3.4 10 0 10 C0 6.7 0 3.4 0 0 Z " fill="#D9A866" transform="translate(80,190)"/>
<path d="M0 0 C3.3 0 6.6 0 10 0 C10 3.3 10 6.6 10 10 C6.7 10 3.4 10 0 10 C0 6.7 0 3.4 0 0 Z " fill="#FFCA85" transform="translate(70,190)"/>
<path d="M0 0 C3.3 0 6.6 0 10 0 C10 3.3 10 6.6 10 10 C6.7 10 3.4 10 0 10 C0 6.7 0 3.4 0 0 Z " fill="#663931" transform="translate(80,180)"/>
<path d="M0 0 C3.3 0 6.6 0 10 0 C10 3.3 10 6.6 10 10 C6.7 10 3.4 10 0 10 C0 6.7 0 3.4 0 0 Z " fill="#A47C46" transform="translate(80,170)"/>
<path d="M0 0 C3.3 0 6.6 0 10 0 C10 3.3 10 6.6 10 10 C6.7 10 3.4 10 0 10 C0 6.7 0 3.4 0 0 Z " fill="#663931" transform="translate(240,130)"/>
<path d="M0 0 C3.3 0 6.6 0 10 0 C10 3.3 10 6.6 10 10 C6.7 10 3.4 10 0 10 C0 6.7 0 3.4 0 0 Z " fill="#CBCBCB" transform="translate(200,120)"/>
<path d="M0 0 C3.3 0 6.6 0 10 0 C10 3.3 10 6.6 10 10 C6.7 10 3.4 10 0 10 C0 6.7 0 3.4 0 0 Z " fill="#FFFFFF" transform="translate(250,110)"/>
<path d="M0 0 C3.3 0 6.6 0 10 0 C10 3.3 10 6.6 10 10 C6.7 10 3.4 10 0 10 C0 6.7 0 3.4 0 0 Z " fill="#FFFFFF" transform="translate(150,110)"/>
<path d="M0 0 C3.3 0 6.6 0 10 0 C10 3.3 10 6.6 10 10 C6.7 10 3.4 10 0 10 C0 6.7 0 3.4 0 0 Z " fill="#663931" transform="translate(140,110)"/>
<path d="M0 0 C3.3 0 6.6 0 10 0 C10 3.3 10 6.6 10 10 C6.7 10 3.4 10 0 10 C0 6.7 0 3.4 0 0 Z " fill="#FFDDB0" transform="translate(50,110)"/>
<path d="M0 0 C3.3 0 6.6 0 10 0 C10 3.3 10 6.6 10 10 C6.7 10 3.4 10 0 10 C0 6.7 0 3.4 0 0 Z " fill="#FFF3E4" transform="translate(160,100)"/>
<path d="M0 0 C3.3 0 6.6 0 10 0 C10 3.3 10 6.6 10 10 C6.7 10 3.4 10 0 10 C0 6.7 0 3.4 0 0 Z " fill="#D1A76F" transform="translate(150,100)"/>
<path d="M0 0 C3.3 0 6.6 0 10 0 C10 3.3 10 6.6 10 10 C6.7 10 3.4 10 0 10 C0 6.7 0 3.4 0 0 Z " fill="#FFF3E4" transform="translate(140,100)"/>
<path d="M0 0 C3.3 0 6.6 0 10 0 C10 3.3 10 6.6 10 10 C6.7 10 3.4 10 0 10 C0 6.7 0 3.4 0 0 Z " fill="#FFFFFF" transform="translate(80,100)"/>
<path d="M0 0 C3.3 0 6.6 0 10 0 C10 3.3 10 6.6 10 10 C6.7 10 3.4 10 0 10 C0 6.7 0 3.4 0 0 Z " fill="#BF9050" transform="translate(70,100)"/>
<path d="M0 0 C3.3 0 6.6 0 10 0 C10 3.3 10 6.6 10 10 C6.7 10 3.4 10 0 10 C0 6.7 0 3.4 0 0 Z " fill="#FFDDB0" transform="translate(60,100)"/>
<path d="M0 0 C3.3 0 6.6 0 10 0 C10 3.3 10 6.6 10 10 C6.7 10 3.4 10 0 10 C0 6.7 0 3.4 0 0 Z " fill="#663931" transform="translate(50,100)"/>
<path d="M0 0 C3.3 0 6.6 0 10 0 C10 3.3 10 6.6 10 10 C6.7 10 3.4 10 0 10 C0 6.7 0 3.4 0 0 Z " fill="#FFF3E4" transform="translate(150,90)"/>
<path d="M0 0 C3.3 0 6.6 0 10 0 C10 3.3 10 6.6 10 10 C6.7 10 3.4 10 0 10 C0 6.7 0 3.4 0 0 Z " fill="#FFDDB0" transform="translate(100,90)"/>
<path d="M0 0 C3.3 0 6.6 0 10 0 C10 3.3 10 6.6 10 10 C6.7 10 3.4 10 0 10 C0 6.7 0 3.4 0 0 Z " fill="#C79550" transform="translate(90,90)"/>
<path d="M0 0 C3.3 0 6.6 0 10 0 C10 3.3 10 6.6 10 10 C6.7 10 3.4 10 0 10 C0 6.7 0 3.4 0 0 Z " fill="#663931" transform="translate(60,90)"/>
<path d="M0 0 C3.3 0 6.6 0 10 0 C10 3.3 10 6.6 10 10 C6.7 10 3.4 10 0 10 C0 6.7 0 3.4 0 0 Z " fill="#FFDDB0" transform="translate(110,80)"/>
<path d="M0 0 C3.3 0 6.6 0 10 0 C10 3.3 10 6.6 10 10 C6.7 10 3.4 10 0 10 C0 6.7 0 3.4 0 0 Z " fill="#663931" transform="translate(70,80)"/>
<path d="M0 0 C3.3 0 6.6 0 10 0 C10 3.3 10 6.6 10 10 C6.7 10 3.4 10 0 10 C0 6.7 0 3.4 0 0 Z " fill="#CBCBCB" transform="translate(190,60)"/>
<path d="M0 0 C3.3 0 6.6 0 10 0 C10 3.3 10 6.6 10 10 C6.7 10 3.4 10 0 10 C0 6.7 0 3.4 0 0 Z " fill="#BB8C4B" transform="translate(170,60)"/>
<path d="M0 0 C3.3 0 6.6 0 10 0 C10 3.3 10 6.6 10 10 C6.7 10 3.4 10 0 10 C0 6.7 0 3.4 0 0 Z " fill="#CBCBCB" transform="translate(200,50)"/>
<path d="M0 0 C3.3 0 6.6 0 10 0 C10 3.3 10 6.6 10 10 C6.7 10 3.4 10 0 10 C0 6.7 0 3.4 0 0 Z " fill="#BB8C4B" transform="translate(90,50)"/>
<path d="M0 0 C3.3 0 6.6 0 10 0 C10 3.3 10 6.6 10 10 C6.7 10 3.4 10 0 10 C0 6.7 0 3.4 0 0 Z " fill="#663931" transform="translate(240,40)"/>
<path d="M0 0 C3.3 0 6.6 0 10 0 C10 3.3 10 6.6 10 10 C6.7 10 3.4 10 0 10 C0 6.7 0 3.4 0 0 Z " fill="#CD9952" transform="translate(200,40)"/>
<path d="M0 0 C3.3 0 6.6 0 10 0 C10 3.3 10 6.6 10 10 C6.7 10 3.4 10 0 10 C0 6.7 0 3.4 0 0 Z " fill="#663931" transform="translate(180,40)"/>
<path d="M0 0 C3.3 0 6.6 0 10 0 C10 3.3 10 6.6 10 10 C6.7 10 3.4 10 0 10 C0 6.7 0 3.4 0 0 Z " fill="#663931" transform="translate(120,40)"/>
<path d="M0 0 C3.3 0 6.6 0 10 0 C10 3.3 10 6.6 10 10 C6.7 10 3.4 10 0 10 C0 6.7 0 3.4 0 0 Z " fill="#CD9952" transform="translate(90,40)"/>
<path d="M0 0 C3.3 0 6.6 0 10 0 C10 3.3 10 6.6 10 10 C6.7 10 3.4 10 0 10 C0 6.7 0 3.4 0 0 Z " fill="#663931" transform="translate(100,10)"/>
<path d="M0 0 C3.3 0 6.6 0 10 0 C10 3.3 10 6.6 10 10 C6.7 10 3.4 10 0 10 C0 6.7 0 3.4 0 0 Z " fill="#663931" transform="translate(90,0)"/>
</svg>
